<svg xmlns="http://www.w3.org/2000/svg" width="260" height="260" viewBox="0 0 260 260" version="1.1">
	<path d="M 76.352 13.993 C 75.171 14.470, 73.907 15.341, 73.543 15.930 C 73.180 16.518, 71.774 17, 70.420 17 C 69.065 17, 66.279 18.077, 64.229 19.394 C 62.178 20.711, 58.700 22.101, 56.500 22.483 C 52.483 23.180, 43.553 29.117, 42.537 31.765 C 42.238 32.544, 42.290 33.659, 42.651 34.245 C 43.037 34.869, 42.835 35.016, 42.164 34.601 C 41.534 34.212, 38.927 35.491, 36.366 37.447 C 33.806 39.401, 31.215 41.008, 30.606 41.018 C 29.227 41.041, 23 48.438, 23 50.055 C 23 50.883, 23.682 50.791, 25.250 49.750 C 26.488 48.928, 27.500 47.786, 27.500 47.211 C 27.500 46.637, 27.910 45.792, 28.410 45.333 C 28.939 44.849, 29.019 45.024, 28.601 45.750 C 27.588 47.510, 29.497 47.311, 31 45.500 C 31.685 44.675, 33.202 44.016, 34.372 44.036 C 36.315 44.069, 36.239 44.286, 33.500 46.531 C 31.850 47.883, 30.921 48.992, 31.435 48.995 C 31.950 48.998, 41.850 44.304, 53.435 38.564 C 65.021 32.825, 75.384 27.987, 76.465 27.814 C 78.010 27.567, 79.450 29.315, 83.209 36 C 85.838 40.675, 87.992 45.041, 87.995 45.703 C 88.001 47.065, 82.738 48.782, 75.875 49.658 C 72.058 50.146, 70.892 49.892, 69.208 48.208 C 68.085 47.085, 67.467 45.832, 67.833 45.423 C 68.200 45.014, 67.904 45.024, 67.175 45.445 C 66.136 46.045, 66.299 46.689, 67.925 48.420 C 69.066 49.635, 70 51.654, 70 52.907 C 70 54.160, 70.868 56.289, 71.930 57.638 C 73.306 59.387, 73.706 61.038, 73.324 63.391 C 72.710 67.173, 74.530 71.304, 78.405 74.924 C 79.832 76.258, 81 78.113, 81 79.047 C 81 79.981, 81.986 82.940, 83.192 85.623 C 85.497 90.753, 86.463 103.738, 84.942 109.149 C 84.486 110.771, 84.644 112.282, 85.349 113.046 C 86.218 113.988, 86.215 114.134, 85.335 113.640 C 84.655 113.259, 83.253 114.473, 81.961 116.564 C 79.473 120.589, 78.512 131.659, 80.273 136 C 80.831 137.375, 81.359 141.082, 81.447 144.239 C 81.563 148.400, 82.211 150.794, 83.804 152.948 C 85.012 154.582, 86 156.618, 86 157.473 C 86 158.328, 86.423 159.809, 86.940 160.764 C 87.456 161.719, 88.134 163.715, 88.446 165.199 C 89.494 170.192, 104.870 185.816, 107.274 184.331 C 107.849 183.975, 108.011 184.173, 107.638 184.776 C 107.269 185.373, 107.373 186.112, 107.868 186.419 C 108.364 186.725, 109.075 189.015, 109.449 191.507 C 109.840 194.119, 110.550 195.778, 111.123 195.424 C 111.670 195.086, 111.830 193.502, 111.479 191.905 C 111.128 190.307, 111.074 189, 111.358 189 C 112.239 189, 118.381 197.986, 118.621 199.626 C 118.746 200.478, 119.558 201.959, 120.424 202.916 C 122.181 204.857, 122.487 209.699, 121 212 C 120.159 213.302, 120.029 213.283, 120.015 211.857 C 120.007 210.953, 119.274 209.935, 118.386 209.595 C 117.255 209.161, 116.925 208.175, 117.283 206.302 C 117.775 203.727, 114.409 195, 112.923 195 C 111.029 195, 110.002 197.875, 110.979 200.443 C 112.217 203.701, 112.352 223, 111.136 223 C 110.661 223, 108.973 224.912, 107.386 227.250 C 105.799 229.588, 103.938 232.095, 103.250 232.821 C 102.562 233.548, 102 234.786, 102 235.571 C 102 236.382, 101.026 237.007, 99.750 237.015 C 98.080 237.027, 97.855 237.256, 98.878 237.904 C 100.772 239.103, 99.377 241, 96.600 241 C 94.472 241, 87.755 239.178, 83.750 237.513 C 82.772 237.107, 82 237.223, 82 237.776 C 82 238.321, 82.787 239.057, 83.750 239.411 C 84.713 239.765, 87.075 240.921, 89 241.979 L 92.500 243.904 87.333 243.952 C 82.833 243.994, 81.902 243.645, 80.115 241.250 C 78.987 239.738, 78.049 239.036, 78.032 239.691 C 78.014 240.346, 78.457 241.165, 79.016 241.510 C 79.575 241.856, 79.771 242.561, 79.452 243.078 C 79.133 243.594, 79.913 244.435, 81.186 244.945 C 83.239 245.769, 83.077 245.880, 79.750 245.937 C 77.688 245.971, 76 246.450, 76 247 C 76 247.550, 78.066 248, 80.591 248 C 84.374 248, 85.887 248.603, 89.188 251.429 C 93.537 255.152, 103.012 260.024, 105.777 259.960 C 106.725 259.938, 105.139 258.900, 102.252 257.654 C 99.366 256.408, 94.893 253.900, 92.312 252.081 L 87.619 248.773 91.560 247.323 C 94.601 246.204, 100.500 245.903, 117.424 246.001 C 137.479 246.118, 139.558 246.294, 141.809 248.065 C 143.162 249.129, 145.473 250, 146.944 250 C 148.414 250, 150.445 250.605, 151.456 251.344 C 154.433 253.521, 137.960 254.625, 133.761 252.531 C 131.523 251.414, 127.959 251.050, 120.596 251.183 L 110.500 251.366 121 251.970 C 126.775 252.302, 132.625 253.026, 134 253.577 C 136.969 254.769, 202.261 254.232, 201.514 253.022 C 201.245 252.587, 198.882 251.937, 196.262 251.579 C 186.902 250.298, 181.458 248.599, 178.723 246.106 C 176.173 243.781, 175.181 243.572, 166.523 243.537 C 159.782 243.511, 156.730 243.102, 155.800 242.103 C 154.710 240.931, 154.816 240.818, 156.455 241.400 C 157.530 241.782, 160.455 242.291, 162.955 242.532 L 167.500 242.969 163.500 241.952 C 153.725 239.466, 152.176 238.900, 151.692 237.640 C 151.294 236.602, 152.001 236.453, 154.839 236.975 C 156.853 237.346, 159.422 238.146, 160.549 238.753 C 161.676 239.359, 165.501 240.163, 169.049 240.538 C 172.597 240.914, 176.988 242.072, 178.807 243.111 C 180.626 244.150, 182.899 245, 183.857 245 C 184.816 245, 186.132 245.532, 186.783 246.183 C 187.434 246.834, 188.244 247.089, 188.583 246.750 C 189.772 245.561, 187.878 244.044, 183.708 242.846 C 181.394 242.181, 178.179 240.729, 176.565 239.619 C 174.950 238.508, 172.144 237.600, 170.329 237.600 C 168.350 237.600, 167.524 237.286, 168.265 236.815 C 169.212 236.214, 169.184 236.027, 168.144 236.015 C 167.399 236.007, 165.538 234.988, 164.008 233.750 C 162.479 232.512, 159.539 230.150, 157.475 228.500 C 152.151 224.244, 151 223.024, 151 221.632 C 151 220.958, 149.669 219.302, 148.042 217.953 C 146.416 216.604, 145.066 214.882, 145.042 214.128 C 145.007 212.971, 144.725 212.968, 143.250 214.110 C 141.596 215.391, 141.593 215.356, 143.192 213.468 C 145.550 210.685, 147.079 203.485, 145.627 202.005 C 144.788 201.151, 144.850 200.939, 145.866 201.179 C 146.617 201.355, 148.062 200.053, 149.077 198.284 C 150.091 196.515, 154.202 191.763, 158.211 187.724 C 162.220 183.685, 166.400 179.065, 167.500 177.458 C 169.926 173.914, 172.131 169, 171.297 169 C 170.963 169, 171.449 168.162, 172.376 167.137 C 173.303 166.112, 174.273 164.312, 174.531 163.137 C 174.789 161.962, 175.289 159.988, 175.642 158.750 C 176.856 154.493, 177.182 145.370, 176.062 147 C 175.458 147.878, 175.024 148.015, 175.015 147.332 C 175.007 146.689, 176.575 145.190, 178.500 144 C 180.681 142.652, 182.029 141.020, 182.077 139.668 C 182.119 138.476, 182.378 136.600, 182.654 135.500 C 182.929 134.400, 183.401 129.534, 183.703 124.686 C 184.226 116.267, 184.137 115.751, 181.722 113.186 C 180.332 111.709, 177.848 107.648, 176.204 104.161 C 173.355 98.122, 173.313 97.848, 175.317 98.373 C 176.474 98.675, 179.239 98.495, 181.460 97.971 C 183.682 97.448, 187.975 96.821, 191 96.578 C 198.744 95.956, 205.371 94.386, 205.810 93.069 C 206.015 92.454, 207.605 91.356, 209.342 90.630 C 212.492 89.313, 213.147 88.364, 216.574 80.157 C 218.700 75.066, 218.815 75.254, 221.505 88.259 C 222.501 93.076, 223.540 96.794, 223.813 96.520 C 224.086 96.247, 223.270 91.288, 222 85.500 C 220.057 76.645, 219.874 74.365, 220.845 71.122 C 221.480 69.002, 222 64.191, 222 60.431 L 222 53.594 226.122 57.547 C 228.390 59.721, 229.778 60.600, 229.208 59.500 C 228.638 58.400, 226.783 56.178, 225.086 54.563 C 223.327 52.889, 222 50.604, 222 49.248 C 222 44.843, 217.770 36.542, 213.341 32.257 C 210.929 29.923, 208.548 26.941, 208.050 25.631 C 207.520 24.237, 205.142 22.262, 202.322 20.874 C 198.070 18.781, 196.101 18.500, 185.669 18.500 C 175.555 18.500, 173.652 18.754, 172.559 20.250 C 171.648 21.496, 169.897 22, 166.478 22 C 163.837 22, 159.296 22.750, 156.387 23.667 C 152.133 25.008, 150.454 26.229, 147.800 29.909 C 145.955 32.465, 144.059 36.693, 143.500 39.492 C 142.270 45.651, 143.292 45.441, 119.152 44.495 L 100.804 43.775 99.290 40.138 C 98.457 38.137, 97.452 36.275, 97.057 36 C 96.662 35.725, 95.283 33.362, 93.992 30.750 C 92.702 28.137, 91.200 26, 90.656 26 C 90.112 26, 89.949 25.718, 90.293 25.373 C 90.638 25.028, 90.286 23.520, 89.511 22.022 C 88.413 19.898, 88.367 19.012, 89.301 18.002 C 90.256 16.969, 90.144 16.831, 88.750 17.321 C 87.490 17.765, 87 17.417, 87 16.076 C 87 15.052, 86.288 13.941, 85.418 13.607 C 83.024 12.688, 82.912 12.803, 83.589 15.500 C 84.304 18.348, 84.074 18.447, 80.508 16.822 C 79.026 16.147, 78.139 15.080, 78.430 14.322 C 78.709 13.595, 78.839 13.029, 78.719 13.063 C 78.598 13.098, 77.534 13.517, 76.352 13.993 M 85.015 18.143 C 85.007 19.047, 84.325 20.045, 83.500 20.362 C 82.675 20.678, 82 20.501, 82 19.969 C 82 19.436, 81.397 19, 80.661 19 C 79.325 19, 76.524 23.857, 77.371 24.705 C 77.617 24.950, 78.104 24.247, 78.455 23.142 C 78.840 21.927, 79.780 21.265, 80.830 21.467 C 83.690 22.018, 87.072 19.729, 85.972 17.988 C 85.161 16.707, 85.028 16.728, 85.015 18.143 M 64.861 20.622 C 62.860 21.998, 59.527 23.333, 57.456 23.590 C 53.770 24.048, 44 30.215, 44 32.085 C 44 32.588, 44.255 33, 44.566 33 C 45.735 33, 49.555 30.624, 51 28.997 C 51.825 28.069, 54.750 26.552, 57.500 25.627 C 60.250 24.702, 64.075 22.620, 66 21 C 70.261 17.413, 69.767 17.249, 64.861 20.622 M 73.500 19.710 C 72.400 19.972, 69.925 21.608, 68 23.345 C 66.075 25.081, 63.375 27.149, 62 27.939 C 55.092 31.907, 49.225 34.768, 46.768 35.365 C 45.266 35.730, 42.566 37.306, 40.768 38.867 C 38.971 40.428, 36.825 42, 36 42.359 C 35.175 42.718, 35.850 42.717, 37.500 42.356 C 39.150 41.995, 41.255 41.671, 42.179 41.636 C 43.102 41.600, 43.777 41.105, 43.679 40.536 C 43.580 39.966, 44.490 39.533, 45.700 39.574 C 46.910 39.615, 47.691 39.310, 47.436 38.896 C 47.180 38.482, 47.990 37.839, 49.235 37.466 C 50.481 37.093, 54.425 35.434, 58 33.779 C 61.575 32.124, 65.625 30.275, 67 29.671 C 68.375 29.067, 70.676 27.782, 72.113 26.816 C 73.550 25.850, 74.953 25.286, 75.231 25.564 C 75.509 25.842, 75.518 24.929, 75.251 23.535 C 74.967 22.046, 75.228 21, 75.883 21 C 76.498 21, 77 20.550, 77 20 C 77 18.953, 76.753 18.933, 73.500 19.710 M 177.500 19.620 C 172.770 20.796, 172.375 21.064, 174.012 21.984 C 176.273 23.254, 200.367 21.967, 199.047 20.647 C 197.952 19.552, 181.015 18.745, 177.500 19.620 M 86.173 21.620 C 86.422 22.104, 88.525 26.325, 90.848 31 C 93.171 35.675, 95.991 40.625, 97.115 42 L 99.158 44.500 98.501 41.500 C 98.140 39.850, 97.280 37.825, 96.591 37 C 94.635 34.657, 89.558 25.711, 88.972 23.574 C 88.682 22.515, 87.832 21.444, 87.083 21.194 C 86.334 20.945, 85.925 21.136, 86.173 21.620 M 83.200 22.679 C 82.186 23.085, 82.281 23.781, 83.634 25.850 C 84.587 27.307, 85.959 29.095, 86.683 29.821 C 88.220 31.364, 88.463 33.404, 87.003 32.502 C 85.567 31.614, 87.652 36.813, 90.308 40.743 C 92.586 44.113, 94.373 44.824, 95.595 42.845 C 96.012 42.171, 95.872 41.961, 95.259 42.340 C 94.257 42.959, 92.503 40.340, 92.846 38.737 C 93.008 37.979, 85.196 21.928, 84.739 22.079 C 84.607 22.122, 83.915 22.392, 83.200 22.679 M 156.809 24.828 C 151.290 26.795, 145.567 33.500, 144.713 39 C 144.415 40.925, 143.875 43.400, 143.515 44.500 L 142.860 46.500 144.455 44.500 C 147.330 40.894, 152.852 32.041, 153.500 29.999 C 153.849 28.900, 154.892 27.994, 155.817 27.987 C 156.743 27.980, 159.750 26.891, 162.500 25.566 C 167.134 23.334, 167.280 23.158, 164.500 23.156 C 162.850 23.156, 159.389 23.908, 156.809 24.828 M 168.475 24.040 C 168.054 24.722, 168.808 24.846, 170.666 24.399 C 174.498 23.479, 174.860 23, 171.726 23 C 170.291 23, 168.829 23.468, 168.475 24.040 M 184.500 24 L 180.500 24.716 184.500 24.902 C 186.700 25.004, 190.230 25.705, 192.344 26.458 L 196.188 27.829 193.920 25.414 C 191.556 22.899, 191.064 22.825, 184.500 24 M 197.301 26.788 C 199.392 28.934, 202.927 31.715, 205.158 32.969 L 209.213 35.248 208.501 31.874 C 208.110 30.018, 207.422 28.108, 206.973 27.628 C 206.524 27.149, 206.389 26.024, 206.672 25.128 C 207.119 23.721, 207.042 23.703, 206.110 25 C 205.174 26.301, 204.620 25.835, 204.825 23.919 C 204.859 23.599, 202.325 23.236, 199.194 23.112 L 193.500 22.886 197.301 26.788 M 176.813 24.683 C 177.534 24.972, 178.397 24.936, 178.729 24.604 C 179.061 24.272, 178.471 24.036, 177.417 24.079 C 176.252 24.127, 176.015 24.364, 176.813 24.683 M 57.726 27.584 C 56.201 28.412, 54.444 28.774, 53.822 28.390 C 53.130 27.962, 52.968 28.139, 53.405 28.845 C 54.426 30.499, 56.135 30.241, 59 28 C 61.977 25.671, 61.526 25.524, 57.726 27.584 M 83.179 33.417 C 85.340 37.313, 87.607 41.513, 88.215 42.750 C 88.823 43.987, 89.679 45, 90.115 45 C 90.552 45, 89.151 41.680, 87 37.621 C 84.850 33.563, 83.408 29.925, 83.796 29.538 C 84.183 29.150, 83.825 28.983, 83 29.167 C 82.129 29.360, 81.547 28.836, 81.611 27.917 C 81.672 27.046, 81.166 26.333, 80.485 26.333 C 79.756 26.333, 80.862 29.242, 83.179 33.417 M 170.994 27.369 C 163.464 29.259, 161.613 31.156, 154.550 44.217 C 153.148 46.811, 152 49.173, 152 49.467 C 152 49.760, 153.244 50, 154.765 50 C 156.285 50, 159.151 50.869, 161.133 51.931 L 164.736 53.862 166.028 51.448 C 166.739 50.120, 168.148 48.770, 169.160 48.449 C 170.172 48.128, 171 47.457, 171 46.958 C 171 45.586, 176.982 42.779, 178.590 43.396 C 180.708 44.209, 180.275 48.867, 177.536 54.750 C 175.365 59.414, 175.282 60.004, 176.796 60.032 C 178.637 60.066, 183.091 63, 181.302 63 C 180.708 63, 180.243 63.563, 180.269 64.250 C 180.294 64.938, 180.244 67.862, 180.158 70.750 L 180 76 175 76 C 172.250 76, 169.980 76.338, 169.956 76.750 C 169.581 83.064, 169.119 87.050, 168.555 88.825 C 168.176 90.021, 168.273 91, 168.772 91 C 169.271 91, 170.201 92.146, 170.839 93.547 C 172.258 96.661, 172.295 97.301, 171.011 96.507 C 170.434 96.150, 170.284 96.576, 170.651 97.532 C 171.041 98.549, 171.527 98.766, 171.935 98.105 C 172.296 97.521, 176.621 96.696, 181.546 96.272 L 190.500 95.500 181.500 94.939 L 172.500 94.378 181.912 94.189 C 201.967 93.786, 206.749 89.746, 207.642 72.444 C 208.026 65.009, 207.815 62.434, 206.719 61.156 C 205.939 60.245, 203.595 55.234, 201.512 50.020 C 196.509 37.499, 193.832 33.675, 187.142 29.490 C 181.197 25.772, 178.675 25.440, 170.994 27.369 M 188.761 28.942 C 195.849 34.076, 199.245 39.611, 204.749 55 C 205.634 57.475, 206.957 60.099, 207.689 60.832 C 209.758 62.901, 209.131 80.320, 206.825 84.843 C 205.838 86.779, 205.171 88.504, 205.342 88.676 C 206.334 89.667, 214.282 81.150, 216.010 77.244 L 218.060 72.610 214.577 57.634 L 211.094 42.658 205.797 37.216 C 200.614 31.891, 190.535 26.002, 186.600 26.001 C 185.223 26, 185.819 26.811, 188.761 28.942 M 156.915 28.657 C 156.044 28.891, 154.575 30.527, 153.650 32.291 C 152.726 34.056, 150.607 37.693, 148.942 40.373 C 147.276 43.054, 146.062 45.395, 146.243 45.576 C 146.643 45.976, 160 29.525, 160 28.632 C 160 27.964, 159.481 27.969, 156.915 28.657 M 210.115 33.455 C 210.691 35.542, 211.339 38.164, 211.554 39.281 C 211.987 41.528, 216.047 46.286, 216.848 45.486 C 217.126 45.207, 216.065 43.634, 214.490 41.990 C 212.915 40.345, 212.090 39, 212.658 39 C 214.252 39, 216.752 42.168, 218.605 46.537 C 219.529 48.716, 220.491 49.918, 220.741 49.206 C 221.589 46.796, 216.910 37.318, 212.978 33.478 L 209.067 29.660 210.115 33.455 M 48 33 C 47.175 33.533, 46.950 33.969, 47.500 33.969 C 48.050 33.969, 49.175 33.533, 50 33 C 50.825 32.467, 51.050 32.031, 50.500 32.031 C 49.950 32.031, 48.825 32.467, 48 33 M 88 33.889 C 88 34.378, 88.929 35.841, 90.064 37.139 C 91.200 38.438, 91.875 38.825, 91.565 38 C 91.255 37.175, 90.724 35.712, 90.384 34.750 C 89.747 32.944, 88 32.313, 88 33.889 M 155.554 37.208 C 150.566 43.035, 147.867 47.800, 149.117 48.572 C 150.361 49.341, 150.087 49.660, 153.914 43 C 155.652 39.975, 157.788 36.487, 158.659 35.250 C 161.281 31.528, 159.402 32.712, 155.554 37.208 M 207.500 37 C 208.495 38.100, 209.535 39, 209.810 39 C 210.085 39, 209.495 38.100, 208.500 37 C 207.505 35.900, 206.465 35, 206.190 35 C 205.915 35, 206.505 35.900, 207.500 37 M 36.557 39.582 C 34.935 40.768, 34.885 41, 36.250 41 C 37.148 41, 38.179 40.520, 38.541 39.933 C 39.601 38.218, 38.652 38.050, 36.557 39.582 M 174.429 45.907 C 170.993 48.022, 166 52.897, 166 54.136 C 166 54.611, 166.584 55, 167.297 55 C 168.010 55, 169.693 56.281, 171.037 57.846 L 173.480 60.693 176.212 54.596 C 180.350 45.363, 179.785 42.610, 174.429 45.907 M 95.028 46.128 C 95.043 46.882, 96.463 48.850, 98.183 50.500 L 101.311 53.500 99.406 50.173 C 97.056 46.071, 94.988 44.160, 95.028 46.128 M 101 46.096 C 100.999 47.255, 104.493 47.500, 120.999 47.500 C 131.999 47.500, 140.999 47.163, 140.999 46.750 C 141 46.337, 137.738 45.998, 133.750 45.996 C 129.762 45.994, 120.763 45.699, 113.750 45.342 C 103.161 44.802, 101 44.929, 101 46.096 M 213.345 46.858 C 213.633 48.155, 214.902 53.893, 216.165 59.608 C 218.389 69.677, 220.461 73.576, 219.856 66.554 C 219.693 64.658, 219.884 62.783, 220.280 62.387 C 220.676 61.991, 220.955 60.729, 220.900 59.583 C 220.812 57.736, 220.701 57.784, 219.919 60 L 219.037 62.500 219.438 60 C 219.658 58.625, 220.144 56.518, 220.518 55.317 C 221.049 53.613, 220.280 52.189, 217.009 48.817 C 213.487 45.187, 212.904 44.875, 213.345 46.858 M 91.057 48.107 C 91.824 49.540, 92.512 49.888, 93.206 49.194 C 94.473 47.927, 93.387 46, 91.406 46 C 90.214 46, 90.147 46.407, 91.057 48.107 M 144.500 48 C 144.160 48.550, 144.332 49, 144.882 49 C 145.432 49, 146.160 48.550, 146.500 48 C 146.840 47.450, 146.668 47, 146.118 47 C 145.568 47, 144.840 47.450, 144.500 48 M 81.121 49.868 C 75.710 51.288, 74.976 51.735, 76.280 52.817 C 79.359 55.373, 92.330 51.961, 90.541 49.067 C 89.720 47.737, 89.007 47.798, 81.121 49.868 M 103.542 48.933 C 103.225 49.445, 104.168 52.483, 105.639 55.683 C 107.109 58.882, 108.317 61.978, 108.323 62.563 C 108.329 63.219, 111.810 63.708, 117.417 63.839 C 122.412 63.957, 128.392 64.314, 130.704 64.633 C 134.698 65.184, 134.940 65.071, 135.546 62.357 C 136.678 57.284, 139.432 51.149, 140.328 51.703 C 140.807 51.999, 140.689 51.287, 140.065 50.121 C 138.975 48.084, 138.236 48, 121.524 48 C 111.838 48, 103.862 48.414, 103.542 48.933 M 93.570 50.887 C 93.269 51.374, 93.657 52.300, 94.432 52.944 C 95.585 53.900, 95.744 53.738, 95.305 52.057 C 94.711 49.786, 94.386 49.567, 93.570 50.887 M 90.180 52.283 C 89.512 53.088, 86.723 54.044, 83.982 54.408 L 78.999 55.069 80.589 57.496 C 81.463 58.830, 83.039 60.195, 84.089 60.528 C 85.140 60.862, 86 61.540, 86 62.036 C 86 62.532, 85.251 62.650, 84.336 62.299 C 83.318 61.908, 82.920 62.062, 83.311 62.693 C 83.662 63.262, 87.352 63.806, 91.511 63.902 L 99.073 64.077 96.616 59.289 C 92.739 51.730, 91.635 50.530, 90.180 52.283 M 97.366 53.687 C 99.199 57.293, 101 58.802, 101 56.733 C 101 55.972, 99.818 54.258, 98.373 52.924 L 95.746 50.500 97.366 53.687 M 141.080 53.243 C 140.310 54.476, 139.354 56.839, 138.955 58.493 C 138.557 60.147, 137.923 62.242, 137.547 63.149 C 136.981 64.515, 137.690 64.880, 141.682 65.279 C 144.332 65.543, 149.140 66.708, 152.366 67.867 C 155.593 69.026, 158.591 69.753, 159.030 69.482 C 159.468 69.211, 159.628 67.257, 159.385 65.141 C 159.079 62.480, 159.414 60.901, 160.471 60.024 C 162.075 58.693, 162.616 59.912, 161.150 61.550 C 160.038 62.792, 160.937 71.157, 162.105 70.435 C 162.597 70.131, 163 67.408, 163 64.385 C 163 59.468, 162.660 58.577, 159.777 55.944 C 156.202 52.679, 156.654 52.072, 160.691 54.717 C 162.720 56.046, 163.204 56.113, 162.837 55.012 C 162.577 54.231, 160.895 52.992, 159.101 52.259 C 157.261 51.509, 156.117 51.380, 156.478 51.964 C 157.298 53.291, 156.686 53.270, 153.598 51.863 C 151.382 50.853, 150.827 51.052, 148.647 53.643 C 147.297 55.247, 145.252 56.631, 144.103 56.717 C 142.108 56.868, 142.082 56.741, 143.532 53.937 C 145.409 50.308, 143.289 49.707, 141.080 53.243 M 146.241 52.986 C 144.345 56.022, 144.763 56.580, 147 54 C 149.187 51.478, 149.385 51, 148.241 51 C 147.823 51, 146.923 51.894, 146.241 52.986 M 71.718 53.250 C 71.133 54.881, 72.756 58, 74.190 58 C 74.806 58, 74.453 56.995, 73.405 55.767 C 71.801 53.887, 71.780 53.752, 73.274 54.910 C 75.469 56.611, 76.743 55.600, 75.020 53.524 C 73.484 51.674, 72.318 51.577, 71.718 53.250 M 101.679 57.120 C 101.362 58.330, 101.784 60.485, 102.615 61.910 C 103.447 63.334, 103.874 63.712, 103.564 62.750 C 102.044 58.031, 102.055 57.741, 103.645 60.750 C 106.213 65.609, 107.381 64.675, 104.897 59.750 C 102.193 54.388, 102.358 54.522, 101.679 57.120 M 164 56.544 C 164 56.843, 165.042 58.211, 166.315 59.583 C 167.859 61.249, 169.208 61.857, 170.369 61.412 C 171.959 60.802, 171.918 60.541, 169.880 58.372 C 167.917 56.283, 164 55.065, 164 56.544 M 97.005 57.691 C 97.008 58.136, 98.153 59.850, 99.551 61.500 L 102.092 64.500 100.553 61.313 C 99.043 58.187, 96.995 56.096, 97.005 57.691 M 78.490 59.016 C 78.144 59.575, 77.443 59.774, 76.931 59.457 C 76.419 59.141, 76 59.527, 76 60.315 C 76 62.241, 78.870 70.280, 79.800 70.959 C 80.207 71.257, 81.084 72.737, 81.749 74.250 C 82.413 75.763, 83.468 77, 84.092 77 C 85.197 77, 85.104 75.800, 83.436 68.500 C 83.058 66.850, 81.675 64.344, 80.361 62.931 C 79.047 61.518, 78.271 60.062, 78.637 59.696 C 79.003 59.330, 79.934 59.812, 80.706 60.766 C 81.966 62.322, 81.998 62.269, 81.020 60.250 C 79.802 57.737, 79.402 57.541, 78.490 59.016 M 164 62.500 C 164 66.117, 165.330 67.189, 166.389 64.428 C 166.946 62.977, 165.535 59, 164.465 59 C 164.209 59, 164 60.575, 164 62.500 M 74.035 64.438 C 74.002 67.245, 77.676 73.979, 79.250 73.993 C 80.510 74.005, 80.087 72.317, 78.500 71 C 77.675 70.315, 76.984 69.023, 76.965 68.128 C 76.945 67.232, 76.286 65.375, 75.500 64 L 74.071 61.500 74.035 64.438 M 170.040 63.452 C 169.359 64.273, 169.131 65.838, 169.517 67.053 C 170.314 69.564, 171.474 68.634, 172.390 64.750 C 173.094 61.764, 171.960 61.138, 170.040 63.452 M 174.992 64.250 C 174.173 65.487, 173.222 67.737, 172.878 69.250 C 172.333 71.648, 172.554 72, 174.607 72 C 177.421 72, 178.942 67.840, 176.989 65.487 C 176.239 64.583, 176.163 64, 176.794 64 C 177.366 64, 178.034 64.563, 178.280 65.250 C 178.525 65.938, 179.023 66.227, 179.387 65.893 C 180.345 65.012, 178.989 62, 177.634 62 C 177 62, 175.811 63.013, 174.992 64.250 M 89.032 66.250 C 89.093 68.642, 91.737 71, 94.360 71 C 95.812 71, 97.900 71.900, 99 73 C 100.100 74.100, 101.886 75, 102.969 75 C 105.136 75, 105.005 73.888, 102.176 68.250 C 100.619 65.147, 100.284 65, 94.773 65 C 90.804 65, 89.010 65.391, 89.032 66.250 M 104.373 70.210 C 105.476 72.820, 106.544 74.789, 106.748 74.586 C 106.951 74.382, 106.410 72.523, 105.545 70.455 C 104.681 68.386, 104.151 66.515, 104.368 66.299 C 104.585 66.082, 105.603 67.949, 106.631 70.448 C 107.659 72.948, 108.838 74.994, 109.250 74.996 C 110.339 75.002, 110.120 73.834, 108.500 71 C 106.814 68.051, 106.609 66.640, 107.989 67.493 C 108.538 67.832, 108.733 67.467, 108.427 66.671 C 108.117 65.863, 106.677 65.288, 105.123 65.351 L 102.368 65.464 104.373 70.210 M 109 65.378 C 109 65.585, 109.685 66.324, 110.523 67.019 C 111.796 68.076, 111.943 68.014, 111.416 66.641 C 110.878 65.240, 109 64.257, 109 65.378 M 112 65.473 C 112 65.734, 113.013 68.038, 114.250 70.593 L 116.500 75.240 135 74.726 C 147.184 74.388, 154.477 73.763, 156.363 72.895 L 159.225 71.576 152.363 69.173 C 148.340 67.765, 141.568 66.445, 136 65.985 C 124.907 65.069, 112 64.793, 112 65.473 M 84.585 68.543 C 84.970 70.170, 85.333 72.925, 85.392 74.667 C 85.451 76.408, 85.666 77.667, 85.869 77.464 C 86.072 77.261, 86.892 77.749, 87.690 78.548 C 89.539 80.396, 91.379 80.431, 90.678 78.604 C 90.384 77.836, 89.591 75.369, 88.918 73.120 C 88.244 70.872, 86.836 68.257, 85.790 67.310 C 83.951 65.646, 83.910 65.688, 84.585 68.543 M 166 68.917 C 166 70.145, 166.646 71, 167.573 71 C 168.505 71, 169.015 70.320, 168.823 69.333 C 168.337 66.824, 166 66.480, 166 68.917 M 164.158 70 C 164.158 71.375, 164.385 71.938, 164.662 71.250 C 164.940 70.563, 164.940 69.438, 164.662 68.750 C 164.385 68.063, 164.158 68.625, 164.158 70 M 90.422 72.950 C 90.658 73.803, 91.142 75.948, 91.498 77.718 C 92.047 80.449, 92.702 81.046, 95.822 81.661 C 100.059 82.496, 106.818 82.516, 107.638 81.696 C 108.705 80.628, 104.488 76.063, 102.405 76.031 C 101.253 76.014, 99.537 75.146, 98.592 74.102 C 96.353 71.627, 89.799 70.704, 90.422 72.950 M 177.500 72 C 177.160 72.550, 175.585 73, 174 73 C 172.415 73, 170.840 73.450, 170.500 74 C 170.122 74.611, 171.656 75, 174.441 75 C 178.333 75, 179 74.708, 179 73 C 179 70.810, 178.459 70.449, 177.500 72 M 161.494 74.009 C 160.750 75.213, 161.813 79, 162.894 79 C 163.312 79, 163.455 77.650, 163.213 76 C 162.739 72.767, 162.461 72.445, 161.494 74.009 M 157.013 75.029 C 158.804 76.161, 158.894 76.153, 147 76.011 C 139.981 75.927, 135.803 76.430, 131 77.936 C 127.425 79.057, 123.263 79.980, 121.750 79.987 C 118.622 80.002, 118.470 80.849, 120.583 86.500 C 121.406 88.700, 122.264 91.175, 122.491 92 C 125.078 101.426, 126.540 103.772, 131.506 106.458 C 137.638 109.775, 145.896 110.622, 150.233 108.379 C 151.857 107.540, 152.918 106.585, 152.591 106.257 C 152.263 105.930, 152.784 104.734, 153.748 103.598 C 155.184 101.906, 155.204 101.763, 153.855 102.802 C 152.951 103.500, 151.826 103.969, 151.355 103.845 C 150.885 103.722, 148.174 104.773, 145.331 106.181 C 142.488 107.589, 140.375 108.237, 140.636 107.621 C 140.897 107.004, 143.237 105.502, 145.836 104.281 C 148.436 103.061, 152.622 100.698, 155.140 99.031 C 159.525 96.126, 159.710 95.809, 159.530 91.499 C 159.427 89.025, 159.791 87, 160.338 87 C 160.886 87, 161.049 86.716, 160.702 86.369 C 160.355 86.021, 160.522 84.894, 161.074 83.863 C 162.647 80.923, 160.353 74.452, 157.666 74.250 C 155.964 74.122, 155.830 74.282, 157.013 75.029 M 164.700 75.306 C 164.097 76.982, 165.902 80.179, 167.050 79.469 C 168.509 78.568, 168.177 75.282, 166.565 74.663 C 165.775 74.360, 164.936 74.650, 164.700 75.306 M 106 76.778 C 106 77.206, 106.969 78.385, 108.154 79.400 C 110.069 81.040, 110.235 81.055, 109.654 79.540 C 109.294 78.603, 109 77.423, 109 76.918 C 109 76.413, 108.325 76, 107.500 76 C 106.675 76, 106 76.350, 106 76.778 M 110.032 76.559 C 110.014 77.141, 110.661 78.491, 111.468 79.559 C 112.276 80.626, 112.951 81.024, 112.968 80.441 C 112.986 79.859, 112.339 78.509, 111.532 77.441 C 110.724 76.374, 110.049 75.976, 110.032 76.559 M 116.708 77.318 C 115.967 79.250, 123.781 79.427, 128.050 77.575 L 131.500 76.078 124.357 76.039 C 119.338 76.012, 117.064 76.392, 116.708 77.318 M 82 79.504 C 82 80.331, 82.871 82.633, 83.936 84.619 L 85.872 88.231 85.730 83.865 C 85.599 79.856, 84.682 78.055, 82.750 78.015 C 82.338 78.007, 82 78.677, 82 79.504 M 87.030 94.844 C 87.053 105.902, 87.328 109.040, 88.149 107.626 C 90.039 104.373, 91.832 94.830, 91.256 91.093 C 90.952 89.117, 90.765 86.089, 90.842 84.364 C 90.946 82.006, 90.487 81.099, 88.990 80.708 C 87.069 80.205, 87.001 80.696, 87.030 94.844 M 164 81.274 C 164 82.159, 164.410 83.136, 164.912 83.446 C 165.414 83.756, 165.727 83.345, 165.608 82.534 C 165.294 80.392, 164 79.379, 164 81.274 M 167.697 81.393 C 167.288 82.434, 167.189 83.522, 167.476 83.810 C 168.389 84.722, 169.191 83.227, 168.809 81.328 C 168.459 79.588, 168.405 79.591, 167.697 81.393 M 115.802 84.106 C 116.026 85.632, 117.062 87.651, 118.105 88.595 C 119.147 89.538, 120.052 91.478, 120.116 92.905 C 120.203 94.851, 120.354 95.025, 120.718 93.600 C 120.986 92.555, 120.229 89.747, 119.037 87.360 C 117.845 84.973, 117.104 82.640, 117.391 82.177 C 117.677 81.713, 117.346 81.333, 116.654 81.333 C 115.847 81.333, 115.541 82.329, 115.802 84.106 M 91.688 84.085 C 91.382 85.256, 91.552 87.321, 92.066 88.672 C 92.579 90.024, 93 92.510, 93 94.197 C 93 97.249, 93.020 97.260, 97.250 96.554 C 99.588 96.164, 102.175 95.850, 103 95.857 C 106.569 95.886, 112.977 97.835, 114.495 99.352 C 115.401 100.258, 116.786 101, 117.571 101 C 119.531 101, 119.374 97.553, 117.337 95.872 C 116.423 95.118, 114.864 92.672, 113.874 90.438 C 111.275 84.577, 109.256 83.111, 103.995 83.267 C 101.523 83.340, 97.868 83.075, 95.872 82.678 C 92.699 82.046, 92.175 82.222, 91.688 84.085 M 112.296 85.380 C 113.508 87.239, 114.656 88.620, 114.847 88.449 C 115.384 87.970, 111.665 82, 110.830 82 C 110.424 82, 111.084 83.521, 112.296 85.380 M 161.753 84.750 C 161.552 85.162, 161.257 87.054, 161.097 88.953 C 160.840 92.015, 160.987 92.255, 162.403 91.080 C 164.109 89.665, 164.633 84, 163.059 84 C 162.541 84, 161.954 84.338, 161.753 84.750 M 210 87 C 207.547 89.065, 207.003 89.954, 208.182 89.973 C 209.107 89.988, 210.825 88.650, 212 87 C 214.641 83.292, 214.405 83.292, 210 87 M 166.564 86.293 C 166.940 87.279, 167.499 87.834, 167.807 87.526 C 168.115 87.219, 167.808 86.412, 167.124 85.733 C 166.136 84.753, 166.022 84.868, 166.564 86.293 M 203.139 92.086 C 201.841 93.139, 201.192 94, 201.698 94 C 203.037 94, 206.585 91.251, 205.998 90.668 C 205.724 90.395, 204.438 91.033, 203.139 92.086 M 116.415 92.138 C 115.983 92.836, 116.123 93.042, 116.760 92.648 C 117.348 92.285, 118.057 92.553, 118.336 93.244 C 118.698 94.143, 118.865 94.161, 118.921 93.309 C 119.035 91.588, 117.265 90.761, 116.415 92.138 M 103.335 99.059 C 104.894 99.506, 106.811 99.626, 107.595 99.325 C 108.379 99.024, 110.561 99.953, 112.443 101.389 C 115.869 104.002, 120 104.882, 120 103 C 120 102.450, 118.945 102, 117.655 102 C 116.365 102, 114.525 101.132, 113.565 100.071 C 112.219 98.584, 110.523 98.155, 106.160 98.194 C 101.545 98.236, 101.023 98.396, 103.335 99.059 M 160.061 100.887 C 159.426 102.072, 159.161 103.451, 159.470 103.952 C 159.779 104.452, 159.575 105.144, 159.016 105.490 C 158.457 105.835, 158 106.556, 158 107.092 C 158 108.363, 164.641 115, 165.913 115 C 166.958 115, 164.836 106.558, 162.549 101.616 C 161.231 98.768, 161.200 98.759, 160.061 100.887 M 112 104.404 C 116.092 108.671, 120.980 112, 123.154 112 C 126.099 112, 120.736 105.905, 117.476 105.547 C 116.065 105.392, 113.919 104.373, 112.706 103.281 C 108.133 99.168, 107.676 99.894, 112 104.404 M 149.306 105.499 C 148.649 106.212, 147.524 107.005, 146.806 107.261 C 146.088 107.517, 145.774 108.024, 146.108 108.388 C 146.443 108.752, 147.793 108.177, 149.108 107.111 C 150.424 106.045, 151.275 104.954, 151 104.687 C 150.725 104.420, 149.963 104.785, 149.306 105.499 M 128.538 107.250 C 129.617 108.728, 131.362 109.951, 132.417 109.969 C 133.471 109.986, 134.146 109.854, 133.917 109.676 C 133.688 109.498, 131.942 108.275, 130.038 106.957 L 126.576 104.562 128.538 107.250 M 128 110.882 C 128 111.432, 128.450 112.160, 129 112.500 C 129.550 112.840, 130 112.668, 130 112.118 C 130 111.568, 129.550 110.840, 129 110.500 C 128.450 110.160, 128 110.332, 128 110.882 M 129 114.393 C 129 114.609, 129.675 115.045, 130.500 115.362 C 131.325 115.678, 132 115.501, 132 114.969 C 132 114.436, 131.325 114, 130.500 114 C 129.675 114, 129 114.177, 129 114.393 M 82.294 118.750 C 79.956 122.978, 80.122 129.973, 82.514 127.988 C 83.218 127.404, 83.550 125.997, 83.253 124.861 C 82.956 123.725, 83.204 122.492, 83.803 122.122 C 85.129 121.302, 86.364 115, 85.198 115 C 84.742 115, 83.435 116.688, 82.294 118.750 M 130.445 119.116 C 130.857 120.427, 131.247 122.254, 131.311 123.177 C 131.376 124.099, 131.713 124.677, 132.061 124.462 C 132.409 124.247, 133.972 125.405, 135.534 127.036 C 139.455 131.128, 140.820 130.764, 137.563 126.494 C 136.047 124.506, 135.199 122.450, 135.605 121.744 C 135.999 121.060, 135.951 120.835, 135.500 121.244 C 135.048 121.653, 134.188 121.014, 133.589 119.823 C 131.979 116.622, 129.486 116.062, 130.445 119.116 M 169 132.108 C 169 140.655, 169.839 140.728, 170.625 132.248 C 170.982 128.400, 170.789 125.988, 170.091 125.556 C 169.341 125.093, 169 127.142, 169 132.108 M 80.505 130.992 C 80.168 131.538, 80.352 132.775, 80.915 133.742 C 81.794 135.250, 81.944 135.109, 81.970 132.750 C 82.001 129.874, 81.539 129.319, 80.505 130.992 M 167.203 146.750 C 166.631 148.262, 165.876 150.850, 165.526 152.500 C 164.931 155.298, 164.983 155.365, 166.294 153.500 C 167.536 151.734, 169.379 144, 168.558 144 C 168.385 144, 167.775 145.238, 167.203 146.750 M 82.079 146.583 C 82.127 147.748, 82.364 147.985, 82.683 147.188 C 82.972 146.466, 82.936 145.603, 82.604 145.271 C 82.272 144.939, 82.036 145.529, 82.079 146.583 M 83.743 147.876 C 83.451 148.993, 83.769 150.669, 84.450 151.601 C 85.576 153.141, 85.746 153.078, 86.315 150.904 C 86.689 149.472, 86.405 147.977, 85.607 147.179 C 84.496 146.067, 84.185 146.184, 83.743 147.876 M 156.750 160.301 C 149.885 166.680, 148.612 168.457, 151.750 167.281 C 153.278 166.709, 153.327 166.838, 152.137 168.302 C 151.387 169.224, 150.262 169.686, 149.637 169.329 C 149.012 168.972, 148.823 169.037, 149.217 169.474 C 149.612 169.910, 149.049 171.393, 147.967 172.769 C 146.885 174.144, 146.014 175.997, 146.030 176.885 C 146.054 178.154, 146.300 178.071, 147.178 176.500 C 147.793 175.400, 149.017 173.734, 149.898 172.798 C 153.385 169.094, 154.075 167.930, 153.418 166.867 C 152.768 165.816, 159.435 158.768, 160.279 159.612 C 160.969 160.303, 164.223 156.169, 163.853 155.072 C 163.659 154.498, 160.463 156.851, 156.750 160.301 M 87 157.859 C 87 158.501, 87.423 159.809, 87.940 160.764 C 88.456 161.719, 89.119 163.625, 89.413 165 C 90.244 168.890, 103.249 183.084, 104.676 181.658 C 105.052 181.282, 103.191 178.955, 100.541 176.487 C 97.891 174.019, 96.145 172, 96.661 172 C 97.178 172, 98.195 172.563, 98.922 173.250 C 100.009 174.277, 100.061 174.143, 99.214 172.500 C 97.867 169.886, 93 165.346, 93 166.703 C 93 167.282, 93.675 168.315, 94.500 169 C 95.325 169.685, 96 170.710, 96 171.277 C 96 171.845, 95.103 171.498, 94.006 170.505 C 92.018 168.706, 89.680 162.327, 90.514 160.977 C 90.755 160.587, 90.063 159.462, 88.976 158.479 C 87.823 157.434, 87 157.176, 87 157.859 M 160.567 169.125 C 158.316 174.751, 159.124 174.983, 161.798 169.478 C 162.995 167.015, 163.579 165, 163.096 165 C 162.612 165, 161.474 166.856, 160.567 169.125 M 142.560 175.903 C 142.242 176.418, 142.664 177.521, 143.498 178.356 C 144.458 179.315, 144.639 180.105, 143.991 180.505 C 143.428 180.853, 143.207 181.526, 143.500 182 C 143.793 182.474, 143.575 183.144, 143.016 183.490 C 142.457 183.835, 142.014 184.879, 142.030 185.809 C 142.056 187.224, 142.246 187.174, 143.195 185.500 C 143.819 184.400, 144.818 183.169, 145.415 182.765 C 146.012 182.361, 146.107 182.024, 145.628 182.015 C 145.148 182.007, 145.272 181.378, 145.903 180.617 C 146.791 179.547, 146.691 179.095, 145.462 178.624 C 144.588 178.288, 144.134 177.592, 144.453 177.076 C 144.772 176.560, 144.606 175.875, 144.085 175.553 C 143.564 175.231, 142.878 175.388, 142.560 175.903 M 137.805 187.033 C 135.179 192.848, 135.541 195.253, 138.365 190.750 C 139.610 188.764, 141.565 180.947, 140.795 181.033 C 140.633 181.051, 139.287 183.751, 137.805 187.033 M 139.233 196.652 C 139.121 199.210, 139.216 201.118, 139.442 200.891 C 140.205 200.128, 140.836 192, 140.132 192 C 139.748 192, 139.344 194.093, 139.233 196.652 M 129.250 195.674 C 126.322 197.717, 126.392 199, 129.430 199 C 131.167 199, 131.974 198.358, 132.257 196.750 C 132.652 194.505, 132.656 194.506, 133.763 197 C 134.407 198.450, 134.900 198.849, 134.937 197.950 C 134.998 196.440, 133.152 193.947, 132.050 194.052 C 131.748 194.081, 130.488 194.811, 129.250 195.674 M 121.500 201 C 121.840 201.550, 123.190 202, 124.500 202 C 125.810 202, 127.160 201.550, 127.500 201 C 127.869 200.404, 126.657 200, 124.500 200 C 122.343 200, 121.131 200.404, 121.500 201 M 129.636 201.506 C 128.060 202.328, 125.923 203, 124.886 203 C 123.347 203, 123 203.749, 123 207.066 C 123 209.302, 122.445 212.114, 121.766 213.316 C 120.554 215.461, 118.305 223.300, 117.619 227.772 C 117.274 230.019, 114.905 233.346, 112 235.664 C 110.810 236.613, 113.035 236.927, 122.752 237.180 C 134.982 237.499, 135.004 237.496, 135.002 235.187 C 135.001 233.915, 133.990 229.981, 132.756 226.444 C 130.893 221.107, 130.723 219.673, 131.756 218.020 C 132.440 216.924, 133 215.211, 133 214.214 C 133 213.216, 133.502 211.898, 134.117 211.283 C 134.939 210.461, 134.713 209.609, 133.262 208.050 C 131.521 206.182, 131.132 201, 132.733 201 C 133.008 201, 133.035 202.036, 132.793 203.303 C 132.551 204.570, 132.903 206.120, 133.576 206.749 C 134.525 207.635, 134.885 207.005, 135.177 203.946 C 135.603 199.475, 134.479 198.980, 129.636 201.506 M 139.158 205 C 139.158 206.375, 139.385 206.938, 139.662 206.250 C 139.940 205.563, 139.940 204.438, 139.662 203.750 C 139.385 203.063, 139.158 203.625, 139.158 205 M 144 204.500 C 144 205.325, 144.177 206, 144.393 206 C 144.609 206, 145.045 205.325, 145.362 204.500 C 145.678 203.675, 145.501 203, 144.969 203 C 144.436 203, 144 203.675, 144 204.500 M 136.434 207.373 C 136.697 208.953, 137.157 210.490, 137.456 210.789 C 138.432 211.765, 137.997 207.541, 136.963 206 C 136.208 204.874, 136.076 205.217, 136.434 207.373 M 139.564 211.293 C 139.940 212.279, 140.499 212.834, 140.807 212.526 C 141.115 212.219, 140.808 211.412, 140.124 210.733 C 139.136 209.753, 139.022 209.868, 139.564 211.293 M 134.134 213.764 C 134.060 215.009, 133.476 216.866, 132.836 217.891 C 131.942 219.323, 131.975 220.840, 132.981 224.432 C 135.008 231.671, 136.343 228.649, 135.219 219.365 C 134.695 215.039, 134.207 212.519, 134.134 213.764 M 139.647 218.750 C 137.932 224.899, 137.859 225.513, 139.021 224 C 139.963 222.774, 140.076 222.940, 139.638 224.913 C 139.154 227.091, 139.253 227.176, 140.649 225.780 C 141.852 224.577, 141.952 223.779, 141.101 222.189 C 140.499 221.065, 140.279 219.437, 140.611 218.572 C 140.942 217.708, 140.971 217, 140.674 217 C 140.378 217, 139.915 217.787, 139.647 218.750 M 152.319 228.250 C 159.115 234.664, 162.304 236.972, 164.390 236.987 C 165.726 236.996, 165.141 236.231, 162.390 234.371 C 160.250 232.925, 156.413 230, 153.861 227.871 C 147.664 222.699, 146.692 222.938, 152.319 228.250 M 142.702 226.631 C 141.810 227.523, 143.647 230.651, 145.476 231.352 C 146.775 231.851, 146.749 231.528, 145.306 229.220 C 144.371 227.724, 143.544 226.387, 143.469 226.250 C 143.395 226.113, 143.049 226.284, 142.702 226.631 M 140.860 230.694 C 142.135 233.125, 144 234.622, 144 233.214 C 144 232.717, 143.035 231.453, 141.854 230.405 C 139.724 228.513, 139.717 228.515, 140.860 230.694 M 145.351 235.215 C 145.542 236.472, 146.292 237.500, 147.016 237.500 C 149.221 237.500, 149.251 235.205, 147.062 234.033 C 145.235 233.055, 145.041 233.189, 145.351 235.215 M 136 236 C 136 237.131, 136.667 238, 137.535 238 C 138.760 238, 138.854 237.596, 138 236 C 137.411 234.900, 136.720 234, 136.465 234 C 136.209 234, 136 234.900, 136 236 M 101 239.406 C 101 240.324, 101.700 240.630, 103.016 240.286 C 106.089 239.482, 106.442 238, 103.559 238 C 102.027 238, 101 238.564, 101 239.406 M 107.059 239.890 C 106.229 241.440, 106.448 241.886, 108.274 242.376 C 111.913 243.352, 136 243.087, 136 242.071 C 136 241.561, 135.293 240.436, 134.429 239.571 C 133.169 238.312, 130.397 238, 120.464 238 C 109.335 238, 107.967 238.193, 107.059 239.890 M 163.813 238.683 C 164.534 238.972, 165.397 238.936, 165.729 238.604 C 166.061 238.272, 165.471 238.036, 164.417 238.079 C 163.252 238.127, 163.015 238.364, 163.813 238.683 M 136.393 240.582 C 136.727 241.452, 137 242.352, 137 242.582 C 137 242.812, 138.129 243, 139.508 243 C 141.767 243, 141.892 242.800, 140.768 241 C 139.248 238.566, 135.481 238.206, 136.393 240.582 M 141 239.773 C 141 241.636, 143.517 242.749, 148.835 243.235 C 151.769 243.503, 153.643 243.397, 152.999 243 C 152.356 242.602, 151.980 241.920, 152.165 241.484 C 152.524 240.635, 150.719 240.102, 144.750 239.296 C 142.617 239.008, 141 239.214, 141 239.773 M 104.750 243.662 C 105.438 243.940, 106.563 243.940, 107.250 243.662 C 107.938 243.385, 107.375 243.158, 106 243.158 C 104.625 243.158, 104.063 243.385, 104.750 243.662 M 149.762 245.707 C 151.006 245.946, 152.806 245.937, 153.762 245.687 C 154.718 245.437, 153.700 245.241, 151.500 245.252 C 149.300 245.263, 148.518 245.468, 149.762 245.707 M 171.269 246.693 C 172.242 246.947, 173.592 246.930, 174.269 246.656 C 174.946 246.382, 174.150 246.175, 172.500 246.195 C 170.850 246.215, 170.296 246.439, 171.269 246.693 M 181.158 258 C 181.158 259.375, 181.385 259.938, 181.662 259.250 C 181.940 258.563, 181.940 257.438, 181.662 256.750 C 181.385 256.063, 181.158 256.625, 181.158 258" stroke="none" fill="black" fill-rule="evenodd"/>
</svg>