<?xml version="1.0" standalone="no"?>
<!DOCTYPE svg PUBLIC "-//W3C//DTD SVG 20010904//EN"
 "http://www.w3.org/TR/2001/REC-SVG-20010904/DTD/svg10.dtd">
<svg version="1.0" xmlns="http://www.w3.org/2000/svg"
 width="260.000000pt" height="260.000000pt" viewBox="0 0 260.000000 260.000000"
 preserveAspectRatio="xMidYMid meet">
<metadata>
Created by potrace 1.14, written by Peter Selinger 2001-2017
</metadata>
<g transform="translate(0.000000,260.000000) scale(0.100000,-0.100000)"
fill="#000000" stroke="none">
<path d="M764 2460 c-12 -5 -25 -13 -29 -19 -3 -6 -17 -11 -31 -11 -13 0 -41
-11 -62 -24 -20 -13 -55 -27 -77 -31 -40 -7 -129 -66 -140 -93 -3 -7 -2 -19 2
-24 3 -7 1 -8 -5 -4 -7 4 -33 -9 -58 -28 -26 -20 -52 -36 -58 -36 -14 0 -76
-74 -76 -91 0 -8 7 -7 23 4 12 8 22 19 22 25 0 6 4 14 9 19 5 5 6 3 2 -4 -10
-18 9 -16 24 2 7 8 22 15 34 15 19 -1 18 -3 -9 -25 -16 -14 -26 -25 -21 -25 5
0 104 47 220 104 116 58 220 106 231 108 15 2 29 -15 67 -82 26 -47 48 -90 48
-97 0 -14 -53 -31 -121 -40 -38 -4 -50 -2 -67 15 -11 11 -17 24 -14 28 4 4 1
4 -6 0 -11 -6 -9 -13 7 -30 12 -12 21 -33 21 -45 0 -13 9 -34 19 -47 14 -18
18 -34 14 -58 -6 -38 12 -79 51 -115 14 -14 26 -32 26 -41 0 -10 10 -39 22
-66 23 -52 33 -181 17 -235 -4 -17 -3 -32 4 -39 9 -10 9 -11 0 -6 -6 3 -20 -9
-33 -30 -25 -40 -35 -151 -17 -194 5 -14 11 -51 11 -82 2 -42 8 -66 24 -87 12
-17 22 -37 22 -46 0 -8 4 -23 9 -33 6 -9 12 -29 15 -44 11 -50 165 -206 189
-191 5 3 7 1 3 -5 -3 -6 -2 -13 3 -16 5 -3 12 -27 16 -53 5 -27 10 -57 12 -68
10 -46 14 -245 5 -245 -5 0 -22 -19 -38 -42 -16 -24 -35 -49 -42 -56 -6 -7
-12 -20 -12 -28 0 -8 -10 -14 -22 -14 -17 0 -19 -3 -9 -9 19 -12 5 -31 -23
-31 -21 0 -88 18 -128 35 -10 4 -18 3 -18 -3 0 -5 8 -13 18 -16 9 -4 33 -15
52 -26 l35 -19 -52 -1 c-45 0 -54 4 -72 27 -11 16 -21 23 -21 16 0 -6 5 -15
10 -18 6 -4 8 -11 5 -16 -4 -5 4 -13 17 -18 20 -9 19 -10 -14 -10 -21 -1 -38
-5 -38 -11 0 -5 21 -10 46 -10 38 0 53 -6 86 -34 43 -38 138 -86 166 -86 9 1
-7 11 -35 23 -29 13 -74 38 -100 56 l-47 33 40 15 c30 11 89 14 258 13 201 -1
222 -3 244 -21 14 -10 37 -19 51 -19 15 0 35 -6 46 -13 29 -22 -135 -33 -177
-12 -23 11 -58 15 -132 13 l-101 -2 105 -6 c58 -3 116 -10 130 -16 30 -12 683
-6 675 6 -3 4 -26 11 -52 14 -94 13 -148 30 -176 55 -25 23 -35 25 -122 26
-67 0 -98 4 -107 14 -11 12 -10 13 7 7 10 -4 40 -9 65 -11 l45 -5 -40 10 c-98
25 -113 31 -118 44 -4 10 3 11 31 6 21 -3 46 -11 57 -18 12 -6 50 -14 85 -17
36 -4 80 -16 98 -26 18 -10 41 -19 51 -19 9 0 22 -5 29 -12 6 -6 14 -9 18 -5
12 11 -7 27 -49 39 -23 6 -55 21 -71 32 -16 11 -45 20 -63 20 -20 0 -28 3 -20
8 9 6 9 8 -2 8 -7 0 -26 10 -41 23 -15 12 -45 36 -65 52 -53 43 -65 55 -65 69
0 6 -13 23 -30 36 -16 14 -29 31 -30 39 0 11 -3 11 -17 0 -17 -13 -17 -13 -1
6 16 20 40 100 32 108 -3 2 2 10 11 17 8 7 15 18 15 25 0 8 37 51 83 98 45 46
91 97 102 113 24 35 46 84 38 84 -3 0 1 8 11 19 9 10 19 28 21 40 3 11 8 31
11 43 11 37 17 134 8 125 -4 -4 -9 -29 -10 -55 -2 -26 -5 -58 -9 -72 -3 -14
-7 -30 -9 -36 -1 -7 -8 -19 -15 -27 -7 -9 -14 -22 -15 -29 -9 -52 -69 -141
-112 -168 -13 -8 -27 -22 -29 -31 -3 -10 -13 -20 -21 -23 -12 -5 -11 1 4 27
11 17 30 59 41 91 11 32 27 66 35 75 9 9 18 35 20 58 7 56 35 123 51 123 16 0
60 58 51 67 -3 3 -13 -8 -23 -26 -10 -17 -22 -31 -27 -31 -8 0 -2 59 10 97 5
15 4 15 -5 3 -6 -8 -11 -10 -11 -5 0 6 9 21 19 34 18 24 19 24 25 4 4 -11 4
-27 1 -35 -3 -8 0 -20 7 -26 19 -15 78 23 79 51 0 12 3 31 6 42 2 11 7 60 10
108 5 84 4 90 -19 115 -14 15 -46 70 -72 122 -27 52 -52 97 -56 100 -5 3 -4
25 1 49 5 24 9 51 8 60 -3 37 1 41 51 41 l50 0 2 53 c0 28 1 58 1 65 -1 6 4
12 10 12 18 0 -27 29 -45 30 -15 0 -14 6 7 53 28 58 32 105 11 113 -16 6 -76
-22 -76 -36 0 -5 -8 -11 -18 -14 -11 -4 -25 -17 -32 -30 l-13 -25 -36 20 c-19
10 -52 19 -71 19 l-35 -1 35 -18 c19 -11 47 -30 63 -45 23 -21 27 -33 27 -80
0 -30 -4 -57 -9 -60 -12 -8 -21 76 -10 88 15 17 10 29 -6 16 -11 -9 -14 -25
-11 -51 2 -22 1 -41 -4 -44 -4 -3 -34 5 -66 16 -59 21 -180 35 -355 40 -52 2
-86 7 -86 13 0 6 -12 37 -27 69 -14 32 -24 63 -21 68 9 14 342 12 368 -3 20
-10 21 -10 8 6 -13 15 -35 17 -208 14 -154 -2 -193 0 -193 10 0 11 40 12 203
9 165 -4 178 -3 72 3 -71 4 -163 8 -203 9 l-73 1 -16 38 c-8 20 -18 39 -22 42
-4 3 -18 26 -31 53 -13 26 -28 47 -33 47 -6 0 -8 3 -4 6 3 4 0 19 -8 34 -11
21 -11 30 -2 40 10 10 8 12 -5 7 -13 -5 -18 -1 -18 12 0 10 -7 22 -16 25 -24
9 -25 8 -18 -19 7 -28 5 -29 -31 -13 -15 7 -24 17 -21 25 3 7 4 13 3 12 -1 0
-12 -4 -23 -9z m83 -66 c-12 -7 -29 -11 -39 -9 -10 2 -20 -4 -23 -16 -4 -11
-9 -18 -11 -16 -9 8 19 57 33 57 7 0 13 -4 13 -10 0 -5 7 -7 15 -4 8 4 15 14
15 23 0 14 2 14 10 1 7 -11 3 -18 -13 -26z m-187 -4 c-19 -16 -57 -37 -85 -46
-27 -10 -57 -25 -65 -34 -14 -16 -53 -40 -64 -40 -3 0 -6 4 -6 9 0 19 98 81
135 85 20 3 54 16 74 30 49 34 54 32 11 -4z m110 10 c0 -5 -5 -10 -11 -10 -7
0 -9 -10 -6 -25 2 -14 2 -23 -1 -21 -2 3 -17 -2 -31 -12 -14 -10 -37 -23 -51
-29 -14 -6 -54 -24 -90 -41 -36 -16 -75 -33 -88 -37 -12 -3 -20 -10 -18 -14 3
-4 -5 -7 -17 -7 -12 1 -21 -4 -20 -9 1 -6 -6 -11 -15 -11 -9 -1 -30 -4 -47 -8
-16 -3 -23 -3 -15 0 8 4 30 20 48 35 18 16 45 32 60 35 24 6 83 35 152 75 14
8 41 28 60 46 30 27 50 37 83 42 4 0 7 -3 7 -9z m120 -36 c6 -21 56 -111 76
-134 7 -8 15 -28 19 -45 l7 -30 -21 25 c-11 14 -39 63 -63 110 -23 47 -44 89
-46 94 -3 5 1 7 9 4 7 -2 16 -13 19 -24z m0 -64 c22 -44 39 -83 38 -87 -3 -16
15 -43 25 -36 6 3 7 1 3 -5 -12 -20 -30 -13 -53 21 -26 39 -47 91 -33 82 15
-9 12 11 -3 27 -7 7 -21 25 -31 40 -16 25 -15 28 11 37 2 1 21 -35 43 -79z
m-300 20 c-29 -22 -46 -25 -56 -8 -4 7 -3 8 4 4 6 -4 24 0 39 8 38 21 43 19
13 -4z m226 1 c-1 -9 5 -15 14 -13 8 2 12 0 8 -3 -4 -4 11 -41 32 -81 22 -41
36 -74 31 -74 -4 0 -13 10 -19 23 -6 12 -29 54 -50 93 -23 42 -34 71 -27 71 7
0 12 -7 11 -16z m-316 -51 c-8 -5 -19 -10 -25 -10 -5 0 -3 5 5 10 8 5 20 10
25 10 6 0 3 -5 -5 -10z m-115 -69 c-3 -6 -14 -11 -23 -11 -13 0 -13 2 4 14 21
15 30 14 19 -3z m1405 -69 c0 -9 -13 -44 -28 -78 l-27 -61 -25 29 c-13 15 -30
28 -37 28 -20 0 -15 15 15 45 34 35 83 66 94 59 4 -3 8 -13 8 -22z m-796 -34
l19 -33 -31 30 c-17 17 -32 36 -32 44 0 19 21 0 44 -41z m-58 31 c3 -6 2 -15
-4 -21 -7 -7 -14 -3 -21 11 -10 17 -9 21 3 21 8 0 18 -5 22 -11z m-31 -20 c18
-29 -111 -63 -142 -37 -13 11 -6 15 48 29 79 21 86 22 94 8z m48 -30 c4 -16 3
-18 -9 -8 -7 6 -11 15 -8 20 8 13 11 11 17 -12z m13 -72 l25 -48 -76 2 c-41 1
-78 6 -82 12 -4 6 0 8 10 4 10 -3 17 -2 17 3 0 5 -9 11 -19 15 -11 3 -26 17
-35 30 l-16 24 50 7 c27 4 55 13 62 21 14 18 25 6 64 -70z m44 26 c0 -21 -18
-6 -36 30 l-17 32 27 -24 c14 -14 26 -31 26 -38z m618 18 c5 -15 -18 -5 -53
24 -19 14 -18 15 14 2 19 -7 37 -19 39 -26z m-878 14 c17 -21 5 -31 -17 -14
-15 11 -15 10 1 -9 11 -12 14 -22 8 -22 -14 0 -31 31 -25 48 6 16 18 15 33 -3z
m299 -62 c25 -50 13 -59 -13 -10 -15 30 -16 27 0 -20 3 -10 -2 -6 -10 8 -8 14
-12 36 -9 48 7 26 5 27 32 -26z m650 13 c20 -21 21 -24 5 -30 -12 -5 -25 2
-41 18 -28 30 -29 36 -5 36 10 0 29 -11 41 -24z m-693 -29 l15 -32 -25 30
c-26 30 -34 51 -16 40 6 -3 17 -21 26 -38z m-196 11 c10 -21 10 -21 -3 -6 -8
10 -17 15 -21 11 -3 -4 4 -18 18 -32 13 -14 27 -39 30 -56 17 -73 18 -85 7
-85 -6 0 -17 12 -24 28 -6 15 -15 29 -19 32 -9 7 -38 88 -38 107 0 8 4 12 9 8
5 -3 12 -1 16 5 9 15 13 13 25 -12z m850 -7 c10 -21 4 -51 -11 -51 -5 0 -9 16
-9 35 0 40 5 43 20 16z m-890 -72 c0 -9 7 -22 15 -29 16 -13 20 -30 8 -30 -16
0 -53 68 -53 96 l1 29 14 -25 c8 -14 14 -32 15 -41z m954 34 c-9 -39 -21 -49
-29 -24 -4 13 -1 28 5 36 20 24 31 17 24 -12z m70 11 c4 -9 3 -20 0 -23 -4 -3
-9 0 -11 7 -3 6 -9 12 -15 12 -6 0 -6 -6 2 -15 19 -23 4 -65 -24 -65 -20 0
-23 4 -17 28 13 58 52 91 65 56z m-772 -46 c28 -57 29 -68 8 -68 -11 0 -29 9
-40 20 -11 11 -32 20 -46 20 -27 0 -53 24 -54 48 0 8 18 12 58 12 55 0 58 -1
74 -32z m62 15 c3 -8 1 -11 -4 -8 -14 9 -12 -6 5 -35 16 -28 18 -40 8 -40 -5
0 -16 21 -27 46 -10 25 -20 43 -22 41 -2 -2 3 -21 11 -42 9 -20 15 -39 12 -41
-2 -2 -12 18 -23 44 l-20 47 27 1 c16 1 30 -5 33 -13z m30 1 c5 -14 4 -15 -9
-4 -17 14 -19 20 -6 20 5 0 12 -7 15 -16z m246 6 c56 -4 123 -18 164 -32 l68
-24 -28 -13 c-19 -9 -92 -15 -214 -18 l-185 -5 -22 46 c-13 26 -23 49 -23 51
0 7 129 4 240 -5z m-471 -71 c7 -23 15 -47 18 -55 7 -18 -12 -18 -30 1 -8 8
-16 12 -18 10 -2 -2 -4 11 -5 28 -1 18 -4 45 -8 62 -7 28 -6 29 12 12 10 -10
24 -36 31 -58z m799 38 c2 -10 -3 -17 -12 -17 -10 0 -16 9 -16 21 0 24 23 21
28 -4z m-41 -19 c-3 -7 -5 -2 -5 12 0 14 2 19 5 13 2 -7 2 -19 0 -25z m-661
-29 c9 -10 27 -19 38 -19 21 -1 63 -46 52 -57 -8 -8 -75 -8 -118 0 -31 7 -38
13 -43 40 -4 18 -8 39 -11 47 -6 23 60 14 82 -11z m804 11 c0 -17 -7 -20 -46
-20 -27 0 -43 4 -39 10 3 6 19 10 35 10 16 0 32 5 35 10 10 16 15 12 15 -10z
m-158 -30 c5 -34 -7 -41 -17 -10 -5 17 0 40 9 40 2 0 6 -13 8 -30z m-23 -22
c8 -26 9 -44 2 -57 -6 -10 -7 -21 -4 -25 3 -3 2 -6 -4 -6 -12 0 -11 -73 2 -82
6 -4 19 11 31 35 l22 42 11 -40 c6 -22 10 -74 10 -115 -1 -41 -3 -67 -6 -57
-2 9 -9 17 -15 17 -6 0 -9 3 -5 6 3 4 -2 23 -13 44 -11 21 -17 40 -15 42 3 3
-1 5 -9 5 -13 0 -26 -27 -31 -62 -1 -5 -5 -18 -10 -28 -6 -14 2 -28 31 -58 21
-21 43 -39 49 -39 16 0 18 -17 19 -155 1 -101 -2 -125 -17 -149 -10 -15 -16
-30 -13 -33 6 -6 -10 -27 -48 -62 -52 -47 -100 -97 -126 -130 -14 -18 -33 -40
-42 -49 -10 -9 -18 -21 -18 -27 0 -6 -16 -43 -35 -83 -19 -40 -31 -72 -26 -72
4 0 20 26 35 58 26 55 26 56 20 17 -3 -22 -14 -51 -23 -65 -9 -14 -17 -38 -18
-55 -8 -86 -15 -114 -27 -102 -7 6 -10 21 -8 34 2 13 2 23 -1 23 -16 0 -12
-52 6 -71 14 -15 16 -24 8 -32 -6 -6 -11 -19 -11 -29 0 -10 -6 -27 -12 -38
-11 -17 -9 -31 10 -84 12 -36 22 -75 22 -88 0 -23 0 -23 -122 -20 -98 3 -120
6 -108 15 29 24 53 57 56 79 7 45 30 123 42 145 13 24 17 103 4 103 -4 0 -6
-15 -4 -34 2 -19 -1 -43 -7 -53 -9 -15 -10 -16 -11 -2 0 9 -7 20 -16 23 -11 4
-15 14 -11 33 5 26 -29 113 -44 113 -4 0 3 -20 16 -44 14 -26 21 -53 18 -65
-3 -12 1 -29 8 -38 22 -25 18 -76 -5 -90 -12 -7 -24 -12 -27 -13 -3 0 -9 51
-12 112 -3 62 -8 132 -11 156 -3 23 -4 42 -2 42 3 0 21 -23 41 -50 21 -28 40
-49 42 -46 5 5 -50 81 -73 101 -6 6 -36 46 -65 89 -30 44 -71 97 -91 117 -21
21 -38 43 -38 51 0 7 -12 31 -27 53 -17 24 -28 53 -28 74 0 21 -6 36 -15 39
-12 4 -13 3 -2 -10 8 -10 9 -23 4 -39 l-9 -23 -13 23 c-6 13 -8 21 -3 18 5 -3
8 11 6 31 -9 139 18 317 61 400 10 19 15 36 12 39 -3 3 -1 14 5 24 6 13 6 19
0 19 -6 0 -13 -12 -16 -27 -4 -16 -12 -41 -20 -58 -12 -27 -14 -16 -14 117 -1
141 0 146 19 141 15 -4 19 -13 18 -37 -1 -35 10 -117 17 -124 9 -9 5 56 -4 81
-5 14 -7 34 -4 46 5 19 10 21 42 14 20 -4 56 -6 81 -6 53 2 73 -13 99 -71 10
-23 25 -47 34 -55 10 -7 17 -22 17 -32 0 -14 7 -19 30 -19 17 0 30 -5 31 -12
0 -8 2 -9 5 -2 3 6 -4 32 -15 57 -11 26 -18 47 -15 47 2 0 -2 12 -10 28 -7 15
-17 42 -21 60 -6 30 -5 32 22 32 15 0 57 9 93 21 48 15 90 20 160 19 119 -2
118 -2 100 10 -12 7 -10 9 7 8 15 -2 24 -13 32 -40z m71 12 c0 -11 -4 -21 -9
-25 -12 -7 -30 25 -24 42 6 18 33 4 33 -17z m-590 1 c0 -5 3 -17 7 -26 5 -16
4 -15 -15 1 -26 22 -28 34 -7 34 8 0 15 -4 15 -9z m40 -35 c0 -6 -7 -2 -15 8
-8 11 -15 25 -15 30 0 6 7 2 15 -8 8 -11 15 -25 15 -30z m151 28 c-43 -18
-121 -17 -114 3 4 9 26 13 77 13 l71 -1 -34 -15z m-436 -12 c6 -4 12 -27 12
-51 l2 -43 -20 36 c-27 52 -24 80 6 58z m811 -37 c1 -8 -2 -13 -7 -9 -5 3 -9
12 -9 21 0 19 13 9 16 -12z m30 -12 c-11 -11 -17 4 -9 23 7 18 8 18 11 1 2
-10 1 -21 -2 -24z m-512 15 c-3 -4 4 -28 16 -52 12 -23 20 -52 17 -62 -3 -14
-5 -13 -6 7 0 14 -10 34 -20 43 -23 21 -33 73 -14 73 6 0 10 -4 7 -9z m-40
-29 c25 -42 16 -44 -11 -3 -12 19 -19 34 -15 34 4 0 16 -14 26 -31z m506 -18
c0 -16 -7 -35 -16 -42 -14 -12 -16 -9 -13 21 3 41 7 50 20 50 5 0 9 -13 9 -29z
m38 -6 c-3 -3 -9 2 -12 12 -6 14 -5 15 5 6 7 -7 10 -15 7 -18z m-489 -58 c0
-9 -2 -8 -6 1 -2 6 -10 9 -15 6 -7 -4 -8 -2 -4 5 9 13 26 5 25 -12z m531 -50
c0 -7 -4 -6 -10 3 -5 8 -10 11 -10 7 0 -4 11 -25 25 -45 23 -34 25 -45 25
-164 0 -71 -3 -128 -7 -128 -5 0 -16 24 -27 53 -18 52 -34 252 -22 283 6 17
26 10 26 -9z m-66 -114 c18 -62 9 -66 -39 -18 -36 36 -42 49 -25 60 6 4 8 10
5 15 -3 5 -1 19 6 31 11 21 11 21 24 -7 8 -16 21 -53 29 -81z m155 -45 c22
-27 23 -35 18 -111 -3 -45 -9 -95 -12 -111 -3 -16 -7 -34 -8 -40 -2 -11 -35
-35 -49 -36 -5 0 -8 12 -8 26 0 14 -4 33 -9 43 -7 12 -5 26 5 45 9 20 14 63
15 140 0 90 2 107 12 92 7 -10 23 -32 36 -48z m-954 -40 c-4 -18 -11 -36 -17
-39 -6 -4 -8 -16 -5 -28 3 -11 -1 -25 -8 -31 -24 -20 -25 50 -2 93 25 46 39
48 32 5z m851 -140 c-8 -85 -16 -85 -16 1 0 50 3 70 11 65 7 -4 9 -28 5 -66z
m-886 -5 c-1 -24 -2 -26 -11 -10 -5 9 -7 22 -4 27 10 17 15 11 15 -17z m863
-150 c-3 -21 -12 -47 -20 -58 -13 -19 -14 -18 -8 10 7 34 26 85 31 85 1 0 0
-17 -3 -37z m-856 5 c-3 -8 -6 -5 -6 6 -1 11 2 17 5 13 3 -3 4 -12 1 -19z
m797 -109 c-9 -10 -19 -17 -21 -15 -6 6 -73 -56 -73 -68 0 -5 11 1 25 14 36
34 31 17 -7 -25 -52 -55 -62 -67 -75 -89 -10 -16 -12 -17 -13 -5 0 9 9 28 20
41 10 14 16 29 12 33 -4 5 -2 5 4 2 7 -4 18 1 25 10 12 15 12 16 -3 10 -10 -3
-18 -3 -18 0 0 14 135 133 139 122 1 -5 -5 -19 -15 -30z m-719 -29 c-8 -13 15
-77 35 -95 11 -10 20 -13 20 -8 0 6 -7 16 -15 23 -8 7 -15 17 -15 23 0 14 49
-32 62 -58 9 -16 8 -18 -3 -7 -7 6 -17 12 -22 12 -6 0 12 -20 38 -45 27 -25
46 -48 42 -52 -15 -14 -145 128 -153 167 -3 14 -9 33 -15 42 -16 30 -10 42 11
23 11 -10 18 -21 15 -25z m725 -2 c-4 -13 -18 -41 -29 -63 -12 -21 -21 -44
-21 -50 0 -5 -12 -21 -27 -35 -14 -14 -34 -43 -43 -65 -10 -22 -30 -51 -45
-65 -27 -24 -27 -24 -16 -2 7 12 9 27 6 33 -4 5 -1 16 5 24 7 8 9 15 6 15 -4
0 -4 6 1 13 4 6 8 18 9 25 3 18 64 85 64 70 0 -7 -10 -29 -22 -48 -34 -54 -57
-100 -47 -94 10 6 30 41 63 110 10 21 22 46 27 54 5 8 14 26 19 39 8 18 46 59
57 61 1 0 -2 -10 -7 -22z m-25 -108 c-19 -38 -35 -76 -35 -84 0 -19 -64 -125
-96 -159 -15 -16 -23 -34 -20 -43 3 -8 2 -12 -3 -9 -6 3 -15 -3 -20 -12 -9
-14 -10 -8 -9 29 2 25 6 44 11 41 4 -2 11 6 16 19 5 13 16 30 26 38 9 7 27 35
40 60 13 26 35 60 49 77 13 16 32 48 41 71 10 23 21 42 26 42 5 0 -7 -31 -26
-70z m-160 -51 c-4 -5 1 -12 10 -15 12 -5 13 -9 4 -20 -6 -8 -8 -14 -3 -14 5
0 4 -4 -2 -8 -6 -4 -16 -16 -22 -27 -10 -17 -11 -17 -12 -3 0 9 5 20 10 23 6
4 8 10 5 15 -3 5 -1 11 5 15 6 4 5 12 -5 21 -16 16 -11 39 6 28 5 -3 7 -10 4
-15z m-42 -191 c-6 -59 -13 -61 -11 -5 1 26 5 47 9 47 4 0 5 -19 2 -42z m-6
-100 c-3 -7 -5 -2 -5 12 0 14 2 19 5 13 2 -7 2 -19 0 -25z m57 17 c-4 -8 -8
-15 -10 -15 -2 0 -4 7 -4 15 0 8 4 15 10 15 5 0 7 -7 4 -15z m-74 -49 c0 -27
-10 -14 -16 20 -3 22 -2 25 6 14 5 -8 10 -24 10 -34z m28 -31 c-3 -3 -9 2 -12
12 -6 14 -5 15 5 6 7 -7 10 -15 7 -18z m-56 -157 c-15 -15 -38 80 -24 103 7
10 13 29 13 41 1 13 6 -12 11 -56 6 -49 6 -82 0 -88z m28 111 c0 -21 -4 -39
-10 -39 -5 0 -10 21 -10 46 0 27 4 43 10 39 6 -3 10 -24 10 -46z m26 -15 c-3
-8 -1 -24 5 -36 8 -15 7 -24 -5 -37 -9 -10 -16 -22 -16 -28 0 -19 55 -78 75
-81 18 -2 18 -2 3 8 -26 16 -23 33 3 20 30 -17 18 -34 -26 -38 -32 -2 -43 2
-62 25 -12 15 -22 34 -23 42 0 18 41 141 47 141 3 0 2 -7 -1 -16z m94 -36 c0
-28 -49 12 -50 41 0 10 8 7 25 -9 14 -13 25 -27 25 -32z m-325 0 c-4 -18 -8
-43 -10 -55 -9 -61 -35 -56 -35 6 0 39 4 52 23 64 30 22 30 21 22 -15z m412
-124 c4 5 2 11 -5 13 -16 6 -107 93 -97 93 4 0 28 -17 54 -39 25 -21 64 -50
85 -65 31 -21 34 -26 18 -26 -11 0 -24 5 -27 10 -3 6 -11 10 -16 10 -6 0 -8
-4 -5 -9 6 -8 -57 1 -84 13 -19 9 -80 108 -80 131 0 11 28 -13 74 -61 41 -43
79 -74 83 -70z m-464 52 c3 -30 1 -43 -4 -35 -7 12 -9 12 -9 0 0 -19 -30 -40
-59 -41 -16 0 -21 4 -18 15 7 16 80 116 83 112 1 -1 4 -24 7 -51z m330 2 c14
-23 15 -27 2 -22 -19 7 -37 39 -28 48 3 3 7 5 8 4 0 -2 9 -15 18 -30z m-13
-40 c0 -14 -19 1 -31 25 -12 22 -12 22 10 3 11 -11 21 -23 21 -28z m-60 -28
c9 -16 8 -20 -5 -20 -8 0 -15 9 -15 20 0 11 2 20 5 20 2 0 9 -9 15 -20z m-324
-29 c-10 -16 -46 -20 -46 -5 0 8 10 14 26 14 14 0 23 -4 20 -9z m288 -7 c9 -8
16 -20 16 -25 0 -10 -241 -13 -277 -3 -19 5 -21 10 -12 25 9 17 22 19 134 19
99 0 127 -3 139 -16z m313 10 c-3 -3 -12 -4 -19 -1 -8 3 -5 6 6 6 11 1 17 -2
13 -5z m-249 -24 c11 -18 10 -20 -13 -20 -14 0 -25 2 -25 4 0 2 -3 11 -6 20
-9 24 28 20 44 -4z m97 8 c11 -3 18 -8 17 -13 -2 -4 2 -11 8 -15 6 -4 -12 -5
-42 -2 -53 5 -78 16 -78 34 0 9 43 7 95 -4z m-432 -35 c-7 -2 -19 -2 -25 0 -7
3 -2 5 12 5 14 0 19 -2 13 -5z m465 -20 c-10 -2 -28 -2 -40 0 -13 2 -5 4 17 4
22 1 32 -1 23 -4z m-45 -18 c23 -3 81 -5 128 -5 58 -1 92 -5 105 -15 25 -19
40 -19 24 0 -10 12 -9 15 6 15 11 0 39 -7 64 -16 25 -9 65 -20 90 -24 30 -5
-22 -8 -152 -9 l-198 -1 -1 23 c-2 22 -2 22 -6 0 l-4 -22 -35 24 c-19 13 -42
21 -52 19 -9 -3 -26 2 -37 11 -20 16 -20 16 3 10 12 -4 42 -8 65 -10z m250 8
c-7 -2 -21 -2 -30 0 -10 3 -4 5 12 5 17 0 24 -2 18 -5z"/>
<path d="M880 2261 c0 -5 9 -19 21 -32 11 -13 18 -17 15 -9 -3 8 -9 23 -12 33
-7 18 -24 24 -24 8z"/>
<path d="M1200 1564 c0 -9 7 -14 17 -12 25 5 28 28 4 28 -12 0 -21 -6 -21 -16z"/>
<path d="M1237 1553 c-7 -7 41 -43 57 -43 5 0 -1 11 -14 25 -25 26 -32 29 -43
18z"/>
<path d="M1210 1533 c1 -16 39 -53 54 -53 21 0 20 9 -1 27 -29 22 -53 34 -53
26z"/>
<path d="M1261 1438 c5 -18 9 -34 9 -36 0 -2 5 0 12 4 7 4 8 3 4 -4 -7 -12 39
-93 52 -90 9 3 63 -32 80 -52 20 -24 3 39 -19 72 -11 14 -19 33 -19 41 0 8 -6
20 -14 26 -8 6 -19 25 -26 41 -13 31 -34 43 -23 13 7 -17 6 -17 -20 0 -39 25
-47 22 -36 -15z m75 -36 c6 -12 14 -19 19 -14 5 4 5 1 1 -5 -4 -7 4 -28 20
-48 32 -43 19 -46 -21 -5 -15 16 -31 28 -34 25 -4 -2 -7 4 -8 13 -1 9 -4 28
-9 41 -9 30 16 25 32 -7z"/>
<path d="M1331 633 c-10 -26 -10 -27 4 -9 8 11 15 23 15 28 0 15 -7 8 -19 -19z"/>
<path d="M1386 354 c-4 -9 -4 -19 -1 -22 2 -3 7 3 11 12 4 9 4 19 1 22 -2 3
-7 -3 -11 -12z"/>
<path d="M1480 2104 c0 -8 5 -12 10 -9 6 4 8 11 5 16 -9 14 -15 11 -15 -7z"/>
<path d="M1435 2100 c-3 -5 -2 -10 4 -10 5 0 13 5 16 10 3 6 2 10 -4 10 -5 0
-13 -4 -16 -10z"/>
<path d="M1812 20 c0 -14 2 -19 5 -12 2 6 2 18 0 25 -3 6 -5 1 -5 -13z"/>
</g>
</svg>
